<svg width="524" height="256" viewBox="0 0 524 256" fill="none" xmlns="http://www.w3.org/2000/svg">
<g clip-path="url(#clip0)">
<path fill-rule="evenodd" clip-rule="evenodd" d="M90.3641 254.5L89.9306 253.749L5.43065 106.749L5 106H5.86414H74.9308L89.8641 2.5L90.3641 2L90.8641 2.5L105.797 106H174.864H175.728L175.298 106.749L90.7976 253.749L90.3641 254.5Z" fill="#FF751F"/>
<path d="M90.3641 251L70.8641 216V138L88.3641 156.5L90.3641 236L92.3641 156.5L109.864 138V216L90.3641 251Z" fill="black"/>
<path d="M27 140L8.5 108H70.8641L88.3641 152C88.3641 152 71.8641 130.182 59.8641 128C47.8641 125.818 27 140 27 140Z" fill="black"/>
<path d="M154.5 139L172.5 108H109.864L92.3641 152C92.3641 152 108.864 130.182 120.864 128C132.864 125.818 154.5 139 154.5 139Z" fill="black"/>
<path fill-rule="evenodd" clip-rule="evenodd" d="M89.8641 2.5L58.3641 42.7177C58.3641 42.7177 72.0373 38.1243 74.0373 43.6243C76.0373 49.1243 75.5255 56.8506 75.5255 56.8506L73.5335 97.1876L89.0352 149.124L90.5373 152.624L92.0393 149.124L107.541 97.1876L105.549 56.8506C105.549 56.8506 104.837 49.1243 107.037 43.6243C109.237 38.1243 122.71 42.7177 122.71 42.7177L90.8641 2.5L92.0393 91.3199L99.4352 99.4554L91.5373 93.7083L90.5373 99.4554L89.5373 93.7083L81.6393 99.4554L89.0352 91.3199L89.8641 2.5Z" fill="black"/>
<path d="M226.96 244H252.88V94.24H277.36V67.6H202.48V94.24H226.96V244ZM304.578 244H324.738L336.738 160.48L338.178 150.16H339.138L340.578 160.48L352.578 244H372.738L396.498 67.6H372.498L362.178 159.28L361.698 165.04H359.778L359.058 159.28L348.018 67.6H329.298L318.258 159.28L317.538 165.04H315.618L315.138 159.28L304.818 67.6H280.818L304.578 244ZM401.744 244H426.944L431.744 208H456.704L461.504 244H486.704L460.064 67.6H428.384L401.744 244ZM435.344 180.64L442.784 124.96L443.504 120.4H444.944L445.664 124.96L453.104 180.64H435.344Z" fill="black"/>
</g>
<defs>
<clipPath id="clip0">
<rect width="524" height="256" fill="white"/>
</clipPath>
</defs>
</svg>
